<svg width="1200" height="630" viewBox="0 0 1200 630" xmlns="http://www.w3.org/2000/svg">
  <defs>
    <linearGradient id="bg" x1="0%" y1="0%" x2="100%" y2="100%">
      <stop offset="0%" style="stop-color:#060e1a"/>
      <stop offset="100%" style="stop-color:#0A1628"/>
    </linearGradient>
    <linearGradient id="textGrad" x1="0%" y1="0%" x2="100%" y2="0%">
      <stop offset="0%" style="stop-color:#60A5FA"/>
      <stop offset="50%" style="stop-color:#67E8F9"/>
      <stop offset="100%" style="stop-color:#34D399"/>
    </linearGradient>
    <radialGradient id="glow1" cx="30%" cy="40%" r="50%">
      <stop offset="0%" style="stop-color:#1E40AF;stop-opacity:0.3"/>
      <stop offset="100%" style="stop-color:#1E40AF;stop-opacity:0"/>
    </radialGradient>
    <radialGradient id="glow2" cx="70%" cy="60%" r="50%">
      <stop offset="0%" style="stop-color:#10B981;stop-opacity:0.2"/>
      <stop offset="100%" style="stop-color:#10B981;stop-opacity:0"/>
    </radialGradient>
  </defs>
  <rect width="1200" height="630" fill="url(#bg)"/>
  <rect width="1200" height="630" fill="url(#glow1)"/>
  <rect width="1200" height="630" fill="url(#glow2)"/>
  <!-- Grid -->
  <g stroke="rgba(255,255,255,0.03)" stroke-width="1">
    <line x1="0" y1="63" x2="1200" y2="63"/>
    <line x1="0" y1="126" x2="1200" y2="126"/>
    <line x1="0" y1="189" x2="1200" y2="189"/>
    <line x1="0" y1="252" x2="1200" y2="252"/>
    <line x1="0" y1="315" x2="1200" y2="315"/>
    <line x1="0" y1="378" x2="1200" y2="378"/>
    <line x1="0" y1="441" x2="1200" y2="441"/>
    <line x1="0" y1="504" x2="1200" y2="504"/>
    <line x1="0" y1="567" x2="1200" y2="567"/>
    <line x1="120" y1="0" x2="120" y2="630"/>
    <line x1="240" y1="0" x2="240" y2="630"/>
    <line x1="360" y1="0" x2="360" y2="630"/>
    <line x1="480" y1="0" x2="480" y2="630"/>
    <line x1="600" y1="0" x2="600" y2="630"/>
    <line x1="720" y1="0" x2="720" y2="630"/>
    <line x1="840" y1="0" x2="840" y2="630"/>
    <line x1="960" y1="0" x2="960" y2="630"/>
    <line x1="1080" y1="0" x2="1080" y2="630"/>
  </g>
  <!-- Avatar circle -->
  <circle cx="200" cy="315" r="100" fill="rgba(30,64,175,0.2)" stroke="rgba(96,165,250,0.3)" stroke-width="2"/>
  <text x="200" y="305" font-family="system-ui,sans-serif" font-size="48" font-weight="bold" fill="url(#textGrad)" text-anchor="middle">PP</text>
  <text x="200" y="340" font-family="system-ui,sans-serif" font-size="14" fill="rgba(255,255,255,0.4)" text-anchor="middle">CTO · IA · Impact</text>
  <!-- Main text -->
  <text x="350" y="260" font-family="system-ui,sans-serif" font-size="64" font-weight="bold" fill="url(#textGrad)">Paul Pacheco</text>
  <text x="352" y="320" font-family="system-ui,sans-serif" font-size="28" fill="rgba(255,255,255,0.7)">CTO &amp; AI Practitioner</text>
  <text x="352" y="370" font-family="system-ui,sans-serif" font-size="20" fill="rgba(255,255,255,0.45)">Je transforme des idées en produits qui changent des vies.</text>
  <!-- Badges -->
  <rect x="352" y="400" width="100" height="32" rx="16" fill="rgba(16,185,129,0.15)" stroke="rgba(16,185,129,0.4)" stroke-width="1"/>
  <text x="402" y="421" font-family="system-ui,sans-serif" font-size="14" fill="#34D399" text-anchor="middle">EdTech</text>
  <rect x="464" y="400" width="130" height="32" rx="16" fill="rgba(59,130,246,0.15)" stroke="rgba(59,130,246,0.4)" stroke-width="1"/>
  <text x="529" y="421" font-family="system-ui,sans-serif" font-size="14" fill="#60A5FA" text-anchor="middle">Tech for Good</text>
  <rect x="606" y="400" width="60" height="32" rx="16" fill="rgba(139,92,246,0.15)" stroke="rgba(139,92,246,0.4)" stroke-width="1"/>
  <text x="636" y="421" font-family="system-ui,sans-serif" font-size="14" fill="#A78BFA" text-anchor="middle">IA</text>
  <!-- Bottom bar -->
  <rect x="0" y="590" width="1200" height="40" fill="rgba(255,255,255,0.02)"/>
  <text x="600" y="615" font-family="system-ui,sans-serif" font-size="16" fill="rgba(255,255,255,0.3)" text-anchor="middle">paulpacheco.dev · Paris, France</text>
</svg>
